Glory.London.Spong.Bonjasky.2013.WEBRIP.x264-WD 


GLORY 5 London: Spong vs. Bonjasky is a Kickboxing event to take place Saturday March 23, 2013 at the Excel Arena, London, England.
 
Figh Card


Tyrone Spong vs Remy Bonjasky

Andy Ristie vs Albert Kraus

Stephane Susperregui vs Danyo Ilunga

Liam Harrison vs Mosab Amrani

Jordan Watson vs Steve Moxon

Raymond Daniels vs TBA

Singh Jaideep vs Daniel Sam

Steve Wakeling vs Eddie Walker

Maxim Vyrovski vs Duoli Chen

Johann Faveau vs Warren Stevelmans

Reece McAllister vs Tim Thomas

Format                                   : MPEG-4
Website                               : Wrestling Desires   http://wrestlingforum.info/      
Source                                      : Watch Online Site
Format profile                           : Base Media / Version 2
Codec ID                                 : mp42
File size                                : 2.98 GiB
Duration                                 : 3h 11mn
Overall bit rate mode                    : Variable
Overall bit rate                         : 2 228 Kbps
Encoded date                             : UTC 2013-03-26 16:06:56
Tagged date                              : UTC 2013-03-26 16:06:56

Video
ID                                       : 201
Format                                   : AVC
Format/Info                              : Advanced Video Codec
Format profile                           : Baseline@L3.0
Format settings, CABAC                   : No
Format settings, ReFrames                : 1 frame
Codec ID                                 : avc1
Codec ID/Info                            : Advanced Video Coding
Duration                                 : 3h 11mn
Bit rate                                 : 2 074 Kbps
Maximum bit rate                         : 6 141 Kbps
Width                                    : 640 pixels
Height                                   : 360 pixels
Display aspect ratio                     : 16:9
Frame rate mode                          : Constant
Frame rate                               : 25.000 fps
Color space                              : YUV
Chroma subsampling                       : 4:2:0
Bit depth                                : 8 bits
Scan type                                : Progressive
Bits/(Pixel*Frame)                       : 0.360
Stream size                              : 2.77 GiB (93%)
Writing library                          : x264 core 118
Encoding settings                        : cabac=0 / ref=1 / deblock=0:0:0 / analyse=0:0 / me=dia / subme=0 / psy=1 / psy_rd=1.00:0.00 / mixed_ref=0 / me_range=16 / chroma_me=1 / trellis=0 / 8x8dct=0 / cqm=0 / deadzone=21,11 / fast_pskip=1 / chroma_qp_offset=0 / threads=36 / sliced_threads=0 / nr=0 / decimate=1 / interlaced=0 / bluray_compat=0 / constrained_intra=0 / bframes=0 / weightp=0 / keyint=250 / keyint_min=25 / scenecut=0 / intra_refresh=0 / rc=crf / mbtree=0 / crf=24.0 / qcomp=0.60 / qpmin=0 / qpmax=69 / qpstep=4 / ip_ratio=1.40 / aq=0
Tagged date                              : UTC 2013-03-26 16:07:12

Audio
ID                                       : 101
Format                                   : AAC
Format/Info                              : Advanced Audio Codec
Format profile                           : LC
Codec ID                                 : 40
Duration                                 : 3h 11mn
Bit rate mode                            : Variable
Bit rate                                 : 152 Kbps
Maximum bit rate                         : 233 Kbps
Channel(s)                               : 2 channels
Channel positions                        : Front: L R
Sampling rate                            : 44.1 KHz
Compression mode                         : Lossy
Stream size                              : 208 MiB (7%)
Encoded date                             : UTC 2013-03-26 16:07:09
Tagged date                              : UTC 2013-03-26 16:07:12